<?xml version="1.0" encoding="UTF-8"?>
<svg xmlns="http://www.w3.org/2000/svg" xmlns:xlink="http://www.w3.org/1999/xlink" width="64px" height="64px" viewBox="0 0 64 64" version="1.1">
<g id="surface1">
<path style=" stroke:none;fill-rule:nonzero;fill:rgb(0%,0%,0%);fill-opacity:1;" d="M 52 10 C 52 6.6875 54.6875 4 58 4 C 61.3125 4 64 6.6875 64 10 L 64 54 C 64 57.3125 61.3125 60 58 60 C 54.6875 60 52 57.3125 52 54 L 52 53.144531 C 43.351562 48.179688 34.039062 45.773438 24.351562 44.8125 L 25.972656 55.660156 C 26.191406 56.828125 25.878906 58.039062 25.121094 58.953125 C 24.359375 59.871094 23.230469 60.398438 22.039062 60.398438 L 19.847656 60.398438 C 18.257812 60.398438 16.820312 59.460938 16.183594 58.003906 L 8.785156 44.042969 C 8.515625 44.039062 8.246094 44.035156 7.976562 44.03125 C 3.566406 43.988281 0.0117188 40.410156 0 36 L 0 28 C 0.015625 23.59375 3.558594 20.007812 7.96875 19.949219 C 11.28125 19.902344 14.589844 19.804688 17.898438 19.648438 C 30.070312 19.03125 42.492188 16.253906 52 10.851562 Z M 56 10 L 56 54 C 56 55.105469 56.894531 56 58 56 C 59.105469 56 60 55.105469 60 54 L 60 10 C 60 8.894531 59.105469 8 58 8 C 56.894531 8 56 8.894531 56 10 Z M 52 15.398438 C 42.625 20.21875 31.164062 22.769531 20 23.53125 L 20 40.464844 C 20.71875 40.503906 21.4375 40.550781 22.148438 40.609375 C 32.421875 41.363281 42.519531 43.585938 52 48.578125 Z M 16 40.261719 L 16 23.738281 C 13.34375 23.835938 10.6875 23.90625 8.03125 23.949219 C 5.808594 23.972656 4.015625 25.777344 4 28 L 4 36 C 4 38.199219 5.792969 40.007812 8.023438 40.035156 C 10.683594 40.066406 13.34375 40.140625 16 40.261719 Z M 13.371094 44.160156 L 19.808594 56.308594 L 19.847656 56.402344 L 22.039062 56.402344 L 22.03125 56.347656 L 20.261719 44.484375 C 17.964844 44.34375 15.667969 44.234375 13.371094 44.15625 Z M 13.371094 44.160156 "/>
</g>
</svg>
