<?xml version="1.0" ?><svg height="64" viewBox="0 0 64 64" width="64" xmlns="http://www.w3.org/2000/svg"><defs><style>.cls-1{fill:none;stroke:#000;stroke-linejoin:round;stroke-width:2px;}</style></defs><title/><g data-name="5-Online Advertising" id="_5-Online_Advertising"><line class="cls-1" x1="1" x2="63" y1="9" y2="9"/><line class="cls-1" x1="4" x2="6" y1="5" y2="5"/><line class="cls-1" x1="8" x2="10" y1="5" y2="5"/><line class="cls-1" x1="58" x2="60" y1="5" y2="5"/><path class="cls-1" d="M61,1H3A2,2,0,0,0,1,3V40a1.959,1.959,0,0,0,2,2H29V63h6V42H61a1.959,1.959,0,0,0,2-2V3A2,2,0,0,0,61,1Z"/><line class="cls-1" x1="11" x2="53" y1="63" y2="63"/><polyline class="cls-1" points="4 42 4 47 29 47"/><polyline class="cls-1" points="60 42 60 47 35 47"/><line class="cls-1" x1="9" x2="9" y1="42" y2="50"/><line class="cls-1" x1="14" x2="14" y1="42" y2="50"/><line class="cls-1" x1="19" x2="19" y1="42" y2="50"/><line class="cls-1" x1="24" x2="24" y1="42" y2="50"/><line class="cls-1" x1="40" x2="40" y1="42" y2="50"/><line class="cls-1" x1="45" x2="45" y1="42" y2="50"/><line class="cls-1" x1="50" x2="50" y1="42" y2="50"/><line class="cls-1" x1="55" x2="55" y1="42" y2="50"/><line class="cls-1" x1="26" x2="38" y1="59" y2="59"/><path class="cls-1" d="M40,27v2a2,2,0,0,0,2,2h4a2,2,0,0,0,2-2V27a2,2,0,0,0-2-2H42a2,2,0,0,1-2-2V21a2,2,0,0,1,2-2h4a2,2,0,0,1,2,2v2"/><path class="cls-1" d="M28,31V19h6a1.959,1.959,0,0,1,2,2v8a1.959,1.959,0,0,1-2,2Z"/><path class="cls-1" d="M24,32V21a2,2,0,0,0-2-2H18a2,2,0,0,0-2,2V32"/><line class="cls-1" x1="16" x2="24" y1="25" y2="25"/><polyline class="cls-1" points="9 13 5 13 5 17"/><polyline class="cls-1" points="59 17 59 13 55 13"/><polyline class="cls-1" points="55 38 59 38 59 34"/><polyline class="cls-1" points="5 34 5 38 9 38"/></g></svg>